<?xml version="1.0" encoding="utf-8"?>
<!-- Generator: Adobe Illustrator 25.2.0, SVG Export Plug-In . SVG Version: 6.00 Build 0)  -->
<svg version="1.1" id="Layer_1" xmlns="http://www.w3.org/2000/svg" xmlns:xlink="http://www.w3.org/1999/xlink" x="0px" y="0px"
	 viewBox="0 0 32 32" style="enable-background:new 0 0 32 32;" xml:space="preserve">
<style type="text/css">
	.st0{fill:#EF4A2C;}
</style>
<g id="Cart">
	<g>
		<g>
			<path class="st0" d="M31.3,24.9c-0.3,0.1-0.6,0.2-0.9,0.2c-1,0.1-1.9,0.2-2.9,0.2c-2.3,0.1-4.6,0.1-6.9,0.1
				c-1.6,0-3.2-0.1-4.7-0.5c-1.9-0.6-3.2-1.7-4.2-3.4c-1-1.8-1.7-3.7-2.3-5.6c-1-3.2-1.9-6.5-2.8-9.8C6.4,5.4,6.1,4.8,5.7,4.2
				C4.7,3,3.4,3.1,2.6,4.4C2.5,4.6,2.4,4.9,2.3,5.1C2.2,5.3,2.1,5.5,2,5.7C1.7,6.1,1.4,6.1,1.3,5.6C1.1,5.1,1,4.6,1,4.1
				C1.1,2.6,2.2,1.3,3.7,1c1.4-0.3,2.7,0.1,3.8,1c1.2,1,1.9,2.3,2.3,3.8c0.9,3.1,1.6,6.3,2.5,9.4c0.4,1.6,0.9,3.1,1.5,4.7
				c0.7,2.1,2.3,3.2,4.4,3.6c1.3,0.2,2.6,0.4,4,0.6c1.7,0.2,3.5,0.3,5.2,0.5c1.1,0.1,2.1,0.1,3.2,0.1c0.3,0,0.6,0.1,1,0.2
				C31.3,24.8,31.3,24.8,31.3,24.9z"/>
			<path class="st0" d="M31.3,24.9c-0.3,0.1-0.5,0.2-0.8,0.2c-0.1,0-0.3,0-0.4,0.1l-0.4,0.1c-0.5,0.1-1.1,0.1-1.6,0.2
				c-0.3,0-0.5,0-0.8,0.1l-0.8,0.1L25,25.6c-1.1,0.1-2.1,0.1-3.2,0.2c-0.5,0-1.1,0-1.6,0c-0.5,0-1.1,0-1.6,0c-0.5,0-1.1-0.1-1.6-0.2
				c-0.3,0-0.5-0.1-0.8-0.2c-0.1,0-0.3-0.1-0.4-0.1c-0.1,0-0.3-0.1-0.4-0.1c-1.1-0.4-2-1-2.8-1.7c-0.4-0.4-0.7-0.8-1-1.2
				c-0.1-0.1-0.2-0.2-0.2-0.3c-0.1-0.1-0.1-0.2-0.2-0.3l-0.2-0.3l-0.2-0.3c-0.5-0.8-0.9-1.7-1.2-2.6c-0.3-0.9-0.6-1.8-0.9-2.6
				l-0.8-2.6C7.2,11.5,6.7,9.7,6.2,8L5.8,6.6L5.7,6.3c0-0.1-0.1-0.2-0.1-0.3C5.5,5.8,5.5,5.6,5.4,5.5C5.3,5.3,5.2,5.1,5.1,5
				C5,4.9,5,4.8,4.9,4.7l0-0.1l0-0.1c0,0-0.1-0.1-0.1-0.1C4.7,4.4,4.6,4.4,4.6,4.4c-0.1,0-0.1-0.1-0.2-0.1C4.3,4.2,4.2,4.2,4.2,4.2
				c-0.1,0-0.1,0-0.2,0.1C3.9,4.3,3.8,4.4,3.7,4.6C3.6,4.7,3.5,4.8,3.4,5L3.3,5.3L3.1,5.6C3,5.7,3,5.9,2.9,6c0,0.1-0.1,0.1-0.2,0.2
				L2.7,6.3c0,0,0,0.1-0.1,0.1c0,0-0.1,0.1-0.2,0.2c0,0-0.1,0.1-0.1,0.1c0,0-0.1,0-0.1,0c0,0-0.1,0-0.1,0C2.1,6.7,2,6.8,1.9,6.8
				s-0.2,0-0.3,0c-0.1,0-0.2,0-0.3,0c-0.1,0-0.1,0-0.1,0c0,0-0.1,0-0.1-0.1C0.9,6.6,0.7,6.5,0.7,6.4c0,0,0,0-0.1-0.1L0.6,6.3
				c0,0-0.1-0.1-0.1-0.1c0-0.1-0.1-0.1-0.1-0.2l0-0.1c0,0,0,0,0-0.1l0-0.1l0,0C0.1,5.3,0,4.8,0,4.2V4.1L0,4l0-0.2
				c0-0.1,0-0.3,0.1-0.4c0.1-0.3,0.1-0.5,0.3-0.8c0.1-0.3,0.3-0.5,0.4-0.8C0.9,1.7,1,1.6,1.1,1.5c0.1-0.1,0.1-0.1,0.2-0.2l0.2-0.2
				C1.5,1.1,1.5,1.1,1.6,1C1.6,1,1.7,0.9,1.8,0.9C1.9,0.8,2,0.7,2.2,0.6c0.3-0.2,0.6-0.3,0.9-0.4l0.3-0.1c0.1,0,0.2,0,0.2-0.1l0.1,0
				l0.1,0C3.9,0,4,0,4.1,0c0.3,0,0.7,0,1,0c0.3,0,0.7,0.1,1,0.2C6.4,0.3,6.7,0.5,7,0.6c0.3,0.1,0.5,0.3,0.8,0.5
				c0.1,0,0.1,0.1,0.2,0.1c0.1,0,0.1,0.1,0.2,0.1c0.1,0.1,0.2,0.2,0.3,0.3l0.2,0.1l0.1,0.2C8.8,2,8.9,2.1,9,2.2
				c0.2,0.2,0.3,0.4,0.5,0.6c0.2,0.2,0.3,0.4,0.4,0.7C10,3.8,10.1,4,10.2,4.3c0.1,0.2,0.2,0.5,0.3,0.7c0,0.1,0.1,0.2,0.1,0.4
				l0.1,0.2l0,0.2L11,7l0.7,2.7l0.7,2.7l0.7,2.7c0.2,0.9,0.5,1.7,0.7,2.6c0.1,0.4,0.3,0.9,0.4,1.3l0.2,0.7c0,0.1,0,0.1,0.1,0.2
				l0.1,0.1c0,0.1,0.1,0.2,0.1,0.3c0.2,0.4,0.4,0.8,0.6,1.1c0.3,0.3,0.6,0.6,1,0.9c0.4,0.2,0.8,0.5,1.2,0.6c0.1,0,0.2,0.1,0.3,0.1
				c0.1,0,0.2,0.1,0.4,0.1c0.1,0,0.3,0.1,0.4,0.1l0.4,0.1c1,0.2,2.1,0.4,3.1,0.5c1,0.1,2.1,0.3,3.1,0.4c0.5,0.1,1.1,0.1,1.6,0.2
				c0.3,0,0.5,0.1,0.8,0.1c0.3,0,0.5,0,0.8,0.1l1.6,0.1l0.4,0l0.2,0c0.1,0,0.1,0,0.2,0c0.3,0.1,0.5,0.2,0.8,0.2h0v0L31.3,24.9z
				 M31.3,24.9v-0.2l0,0c-0.3-0.1-0.5-0.1-0.8-0.2c-0.1,0-0.1,0-0.2,0h-0.2h-0.4c-0.5,0-1.1,0-1.6,0c-0.3,0-0.5,0-0.8,0
				c-0.3,0-0.5,0-0.8,0c-0.5,0-1.1-0.1-1.6-0.1c-1.1-0.1-2.1-0.1-3.2-0.2c-1.1-0.1-2.1-0.2-3.2-0.3l-0.4-0.1c-0.1,0-0.3,0-0.4-0.1
				s-0.3-0.1-0.4-0.1c-0.1,0-0.3-0.1-0.4-0.1c-0.6-0.2-1.1-0.4-1.6-0.7s-0.9-0.7-1.3-1.1c-0.4-0.4-0.6-0.8-0.9-1.3
				c-0.1-0.1-0.1-0.2-0.2-0.3L13,20c0-0.1-0.1-0.1-0.1-0.2l-0.2-0.7c-0.2-0.4-0.3-0.9-0.5-1.3c-0.3-0.9-0.6-1.8-0.8-2.6l-0.8-2.6
				L9.9,10L9.2,7.3L8.8,6L8.8,5.8l0-0.2c0-0.1-0.1-0.2-0.1-0.3C8.5,5.2,8.5,5,8.4,4.8C8,4,7.6,3.3,7,2.7C6.9,2.7,6.8,2.6,6.7,2.5
				c0,0-0.1-0.1-0.1-0.1S6.5,2.4,6.5,2.3C6.3,2.2,6.2,2.1,6,2C5.8,1.9,5.6,1.9,5.4,1.8C5.3,1.8,5.1,1.7,4.9,1.7c-0.2,0-0.4,0-0.6,0
				c-0.1,0-0.1,0-0.1,0l-0.1,0L4,1.7c-0.1,0-0.1,0-0.1,0l-0.1,0C3.6,1.9,3.4,1.9,3.3,2C3.2,2.1,3.1,2.1,3,2.2c0,0-0.1,0.1-0.1,0.1
				c0,0-0.1,0.1-0.1,0.1L2.7,2.4c0,0-0.1,0.1-0.1,0.1C2.6,2.6,2.5,2.7,2.5,2.7C2.4,2.9,2.3,3,2.2,3.2C2.1,3.4,2.1,3.5,2,3.7
				C2,3.8,2,3.9,2,4l0,0.1l0,0.1v0.1c0,0.3,0.1,0.7,0.2,1.1l0,0l0,0c0,0,0,0,0,0l0,0c0,0,0,0,0,0c0,0,0,0,0,0l0,0
				c0,0-0.1-0.1-0.2-0.1c0,0-0.1,0-0.1,0c0,0-0.1,0-0.1,0c-0.1,0-0.2,0-0.2,0c-0.1,0-0.2,0-0.2,0c-0.1,0-0.1,0-0.1,0c0,0,0,0-0.1,0
				c0,0,0,0,0,0c0,0,0,0-0.1,0c0,0,0,0,0,0l0,0c0,0,0,0,0,0c0,0,0,0,0-0.1c0-0.1,0.1-0.1,0.1-0.2l0.2-0.3l0.2-0.3
				C1.6,4.1,1.8,3.8,2,3.6c0.2-0.2,0.5-0.5,0.8-0.7C3,2.8,3.1,2.7,3.4,2.6C3.6,2.6,3.8,2.5,4,2.5c0.5,0,0.9,0.1,1.3,0.3
				C5.5,2.9,5.7,3,5.8,3.1C6,3.2,6.1,3.3,6.2,3.4c0.1,0.1,0.1,0.1,0.2,0.2l0.1,0.1l0.1,0.1C6.6,3.9,6.7,4,6.7,4.1
				C6.9,4.4,7,4.6,7.1,4.8c0.1,0.2,0.2,0.5,0.3,0.7c0,0.1,0.1,0.2,0.1,0.4l0.1,0.3L8,7.6c0.5,1.8,1,3.5,1.5,5.3l0.7,2.6
				c0.2,0.9,0.5,1.7,0.8,2.6s0.6,1.7,1,2.5l0.2,0.3l0.2,0.3c0.1,0.1,0.1,0.2,0.2,0.3c0.1,0.1,0.1,0.2,0.2,0.3c0.2,0.4,0.5,0.7,0.8,1
				c0.3,0.3,0.7,0.6,1,0.9c0.4,0.3,0.8,0.5,1.2,0.6c0.1,0,0.2,0.1,0.3,0.1c0.1,0,0.2,0.1,0.4,0.1c0.2,0.1,0.5,0.1,0.7,0.2
				c0.5,0.1,1,0.2,1.5,0.2c1,0.1,2.1,0.1,3.1,0.2c1.1,0,2.1,0,3.2,0l1.6,0c0.5,0,1.1,0,1.6,0c0.5,0,1.1,0,1.6-0.1l0.4,0
				c0.1,0,0.3,0,0.4,0C30.8,25,31.1,24.9,31.3,24.9z"/>
		</g>
		<g>
			<path class="st0" d="M28.8,29.3c0,0.8-0.4,1.3-0.9,1.8c-1,0.8-2.5,0.6-3.3-0.3c-0.8-0.9-0.8-2.2,0.1-3.1c1.4-1.3,3.7-0.6,4.1,1.2
				C28.8,29,28.8,29.2,28.8,29.3z M26.3,30.1c0.7,0,1.2-0.5,1.2-1.1c0-0.6-0.6-1.1-1.2-1.1c-0.6,0-1.2,0.6-1.2,1.1
				C25.1,29.6,25.7,30.1,26.3,30.1z"/>
			<g>
				<path class="st0" d="M28.8,29.3c0,0.3-0.1,0.6-0.2,0.9c-0.1,0.3-0.2,0.6-0.5,0.8c-0.1,0.1-0.2,0.2-0.3,0.4s-0.3,0.2-0.4,0.3
					c-0.3,0.2-0.7,0.3-1.1,0.4c-0.4,0.1-0.8,0-1.2-0.1c-0.4-0.1-0.8-0.3-1.1-0.6c0,0-0.1-0.1-0.1-0.1l-0.1-0.1L23.7,31l-0.1-0.1
					l-0.1-0.1l-0.1-0.1l-0.1-0.1l-0.1-0.1C23.1,30,23,29.6,23,29.2c0-0.4,0.1-0.8,0.3-1.1c0.2-0.4,0.5-0.7,0.8-0.9
					c0.3-0.2,0.7-0.4,1.1-0.6c0.2-0.1,0.4-0.1,0.6-0.1c0.2,0,0.4,0,0.6,0c0.4,0.1,0.8,0.2,1.1,0.4c0.3,0.2,0.6,0.4,0.7,0.7
					c0.1,0.1,0.2,0.3,0.3,0.4c0,0,0,0.1,0.1,0.1l0.1,0.1l0,0.1c0,0,0,0.1,0,0.1c0.1,0.1,0.1,0.3,0.1,0.4
					C28.8,29,28.8,29.1,28.8,29.3z M28.8,29.3c0-0.6-0.3-1.1-0.8-1.5c-0.1-0.1-0.3-0.2-0.4-0.2c-0.1-0.1-0.3-0.1-0.4-0.1
					c-0.3-0.1-0.6-0.1-0.8,0c-0.1,0-0.1,0-0.2,0.1c-0.1,0-0.1,0-0.2,0.1c-0.1,0.1-0.2,0.1-0.3,0.2c-0.1,0-0.1,0.1-0.1,0.1
					s-0.1,0.1-0.1,0.1c-0.1,0.1-0.1,0.2-0.2,0.2c-0.2,0.3-0.3,0.7-0.3,1.1c0,0.4,0.1,0.7,0.3,1.1c0.1,0.2,0.2,0.3,0.4,0.5
					c0.2,0.1,0.4,0.2,0.7,0.3c0.3,0.1,0.5,0.1,0.8,0c0.3-0.1,0.6-0.2,0.8-0.3c0.3-0.2,0.5-0.4,0.6-0.7
					C28.7,29.9,28.8,29.6,28.8,29.3z"/>
				<path class="st0" d="M26.3,30.1c0.2,0,0.3,0,0.5-0.1c0.1-0.1,0.2-0.2,0.3-0.3c0.1-0.1,0.1-0.2,0.1-0.4c0-0.1-0.1-0.2-0.1-0.3
					c-0.1-0.2-0.4-0.3-0.5-0.3c-0.1,0-0.1,0-0.2,0c0,0,0,0,0,0c0,0,0,0,0,0c0,0-0.1,0-0.2,0c-0.2,0-0.4,0.1-0.5,0.2
					c-0.1,0.1-0.1,0.2-0.1,0.3c0,0.1,0,0.2,0.1,0.4c0.1,0.1,0.2,0.2,0.3,0.3C26,30.1,26.2,30.1,26.3,30.1z M26.3,30.1
					c-0.3,0-0.6-0.1-1-0.3c-0.2-0.1-0.3-0.2-0.4-0.3c-0.1-0.1-0.2-0.3-0.3-0.5c-0.1-0.2-0.1-0.4-0.1-0.7c0-0.2,0.1-0.4,0.3-0.6
					c0.1-0.2,0.3-0.4,0.6-0.5c0.2-0.1,0.6-0.2,0.9-0.2c0.3,0,0.6,0.1,0.9,0.2c0.3,0.1,0.5,0.3,0.6,0.5c0.3,0.4,0.3,0.9,0.2,1.3
					c-0.1,0.2-0.2,0.4-0.3,0.5c-0.1,0.1-0.3,0.3-0.4,0.4C27,30,26.6,30.1,26.3,30.1z"/>
			</g>
		</g>
		<g>
			<path class="st0" d="M15.1,29.3c0-0.8,0.4-1.4,1-1.8c1-0.7,2.4-0.6,3.3,0.2c1,0.9,0.8,2.5-0.2,3.3c-1.4,1-3.2,0.5-3.8-1
				C15.1,29.8,15.1,29.5,15.1,29.3z M17.4,30.1c0.6,0,1.2-0.5,1.2-1.1c0-0.6-0.6-1.1-1.2-1.1c-0.6,0-1.2,0.5-1.2,1.1
				C16.2,29.6,16.8,30.1,17.4,30.1z"/>
			<g>
				<path class="st0" d="M15.1,29.3c0-0.3,0.1-0.6,0.2-0.9c0.1-0.3,0.2-0.6,0.4-0.8c0.1-0.1,0.2-0.2,0.3-0.4
					c0.1-0.1,0.1-0.1,0.2-0.2c0.1-0.1,0.1-0.1,0.2-0.1c0.3-0.2,0.7-0.3,1.1-0.4c0.4-0.1,0.8,0,1.2,0.1c0.4,0.1,0.8,0.3,1.1,0.6
					c0.3,0.3,0.6,0.6,0.8,1c0.2,0.4,0.3,0.7,0.3,1.1c0,0.4-0.1,0.8-0.3,1.1c-0.2,0.4-0.4,0.7-0.8,1c-0.1,0.1-0.2,0.1-0.3,0.2
					c0,0-0.1,0.1-0.1,0.1l-0.1,0.1l-0.1,0.1L19,31.8l-0.2,0.1l-0.1,0l-0.1,0C18.3,32,17.9,32,17.5,32c-0.4-0.1-0.8-0.2-1.1-0.4
					c-0.3-0.2-0.6-0.4-0.8-0.7l-0.1-0.1l-0.1-0.1l-0.1-0.1l0-0.1l0-0.1c0-0.1-0.1-0.1-0.1-0.2l-0.1-0.2
					C15.1,29.8,15.1,29.5,15.1,29.3z M15.1,29.3c0.1,0.3,0.1,0.6,0.2,0.8c0,0.1,0.1,0.1,0.1,0.2c0,0.1,0.1,0.1,0.1,0.2l0,0l0,0
					l0.1,0.1l0.1,0.1l0.1,0.1c0.2,0.2,0.5,0.3,0.8,0.4c0.3,0.1,0.6,0,0.8,0c0.3-0.1,0.5-0.2,0.7-0.3l0,0l0,0l0.1-0.1
					c0,0,0,0,0.1-0.1l0.1-0.1c0,0,0,0,0.1-0.1c0,0,0,0,0.1-0.1c0,0,0.1-0.1,0.1-0.1c0.2-0.3,0.3-0.7,0.3-1.1c0-0.2,0-0.4-0.1-0.6
					c-0.1-0.2-0.1-0.3-0.2-0.5c-0.1-0.2-0.3-0.3-0.4-0.5c-0.2-0.1-0.4-0.2-0.7-0.3c-0.3-0.1-0.5-0.1-0.8,0c-0.3,0.1-0.6,0.2-0.8,0.4
					c-0.2,0.2-0.4,0.4-0.6,0.7C15.1,28.7,15.1,29,15.1,29.3z"/>
				<path class="st0" d="M17.4,30.1c0.2,0,0.3,0,0.5-0.1c0.1-0.1,0.2-0.2,0.3-0.3s0.1-0.2,0.1-0.4c0-0.1-0.1-0.2-0.1-0.3
					c-0.1-0.2-0.3-0.2-0.5-0.3c-0.1,0-0.1,0-0.2,0c0,0,0,0,0,0c0,0,0,0,0,0c0,0-0.1,0-0.2,0c-0.1,0-0.3,0.1-0.5,0.3
					c-0.1,0.1-0.1,0.2-0.1,0.3c0,0.1,0,0.2,0.1,0.4c0.1,0.1,0.2,0.2,0.3,0.3C17.1,30.1,17.3,30.1,17.4,30.1z M17.4,30.1
					c-0.3,0-0.6-0.1-1-0.3c-0.2-0.1-0.3-0.2-0.4-0.3c-0.1-0.1-0.2-0.3-0.3-0.5c-0.1-0.4-0.1-0.9,0.2-1.3c0.1-0.2,0.3-0.4,0.6-0.5
					c0.3-0.1,0.6-0.2,0.9-0.2c0.3,0,0.7,0.1,0.9,0.2c0.3,0.1,0.4,0.3,0.6,0.5c0.3,0.4,0.4,0.9,0.2,1.3c-0.1,0.2-0.2,0.4-0.3,0.5
					c-0.1,0.1-0.3,0.3-0.4,0.3C18.1,30,17.8,30.1,17.4,30.1z"/>
			</g>
		</g>
	</g>
	<g>
		<path class="st0" d="M31.6,15.9c0,0-9.6-1.5-16.2-0.2c0,0-0.6,0.5-0.1,1c0.4,0.6,5.4,1.2,16.3,0C31.5,16.8,32.1,16.3,31.6,15.9z"
			/>
		<path class="st0" d="M31.7,16c0-0.1-0.1-0.1-0.2-0.1c-1.3,0-2.5,0-3.7,0c-1.3,0-2.5,0-3.8,0c-0.6,0-1.3,0-1.9,0.1l-0.5,0l-0.2,0
			l-0.2,0c-0.3,0-0.6,0-0.9,0.1c-0.3,0-0.6,0.1-0.9,0.1l-0.2,0c-0.1,0-0.2,0-0.2,0l-0.5,0.1l-0.5,0.1l-0.2,0l-0.2,0
			c-0.3,0.1-0.6,0.1-0.9,0.2l0.4-0.2l0,0l0,0c0,0,0,0,0,0c0,0,0,0,0,0c0,0,0,0,0,0c0,0,0-0.1,0-0.1c0,0,0,0,0,0c0,0,0,0,0,0s0,0,0,0
			l0,0l0,0l0,0c0,0,0,0,0,0c0,0,0,0,0,0l0,0l0,0l0,0l0,0c0,0,0,0,0,0c0,0,0,0,0,0l0,0c0,0,0,0,0,0c0,0,0,0,0.1,0l0.1,0
			c0,0,0.1,0,0.1,0c0.1,0,0.1,0,0.2,0.1c0.3,0.1,0.6,0.1,0.9,0.2c0.3,0,0.7,0.1,1,0.1c1.3,0.1,2.7,0.1,4.1,0.2c1.4,0,2.7,0,4.1,0
			c1.4,0,2.8,0,4.2,0h0h0c0,0-0.1,0-0.1,0l0,0l0,0l0,0c0,0,0,0,0,0c0,0,0.1-0.1,0.1-0.1c0-0.1,0.1-0.1,0.1-0.2
			C31.8,16.3,31.8,16.2,31.7,16C31.7,16.1,31.7,16.1,31.7,16L31.7,16z M31.6,15.9C31.6,15.9,31.6,15.9,31.6,15.9
			c0.1,0,0.1,0.1,0.1,0.1c0,0,0.1,0.1,0.1,0.1c0.1,0.1,0.1,0.2,0.1,0.3c0,0.1,0,0.2-0.1,0.3c0,0,0,0.1-0.1,0.1c0,0,0,0,0,0.1l0,0
			l0,0c0,0,0,0,0,0c0,0-0.1,0-0.1,0h0c-1.4,0.3-2.7,0.6-4.1,0.8c-0.7,0.1-1.4,0.2-2.1,0.3c-0.7,0.1-1.4,0.1-2.1,0.2
			c-1.4,0.1-2.8,0.1-4.2,0.1c-0.4,0-0.7,0-1.1-0.1c-0.4,0-0.7-0.1-1.1-0.2c-0.1,0-0.2,0-0.3-0.1c-0.1,0-0.1,0-0.2,0l-0.2-0.1
			c-0.1,0-0.1,0-0.2-0.1c0,0,0,0,0,0l-0.1,0l-0.1-0.1c0,0,0,0-0.1,0l-0.1,0l-0.1,0l0,0l0,0l-0.1,0c0,0-0.1-0.1-0.1-0.1c0,0,0,0,0,0
			l0,0c0,0-0.1-0.1-0.1-0.1c-0.1-0.1-0.1-0.2-0.1-0.2c0,0,0-0.1-0.1-0.1c0-0.1,0-0.1,0-0.2c0-0.2,0-0.4,0-0.6c0-0.2,0.1-0.4,0.2-0.5
			c0-0.1,0.1-0.1,0.1-0.2c0,0,0.1-0.1,0.1-0.1l0,0l0,0l0,0l0,0l0.1-0.1c0,0,0.1,0,0.1-0.1l0.2,0c0.3-0.1,0.7-0.1,1-0.2l0.2,0l0.2,0
			l0.5-0.1l0.5-0.1c0.2,0,0.3,0,0.5,0c0.3,0,0.7,0,1,0c1.3,0,2.6,0,3.9,0.1c1.3,0.1,2.6,0.3,3.8,0.5c0.3,0.1,0.6,0.1,1,0.2l0.5,0.1
			c0.2,0,0.3,0.1,0.5,0.1C30.4,15.6,31,15.7,31.6,15.9z"/>
	</g>
	<g>
		<path class="st0" d="M31.7,7.1c0,0-10.2-1.8-17.3-0.2c0,0-0.6,0.6-0.1,1.2s5.8,1.5,17.3,0C31.7,8.1,32.2,7.5,31.7,7.1z"/>
		<path class="st0" d="M31.7,7.1C30.3,7,28.8,7,27.4,6.9c-1.4,0-2.9,0-4.3,0c-1.4,0-2.9,0.1-4.3,0.2c-0.7,0.1-1.4,0.1-2.1,0.2
			c-0.7,0.1-1.4,0.2-2.1,0.4l0.4-0.2l0,0l0,0c0,0,0,0,0,0c0,0,0,0,0,0c0,0,0,0,0,0c0,0,0,0,0,0l0,0c0,0,0,0,0,0c0,0,0,0,0,0v0l0,0
			l0,0l0,0c0,0,0,0,0,0v0l0,0l0,0l0,0c0,0,0,0,0,0l0,0c0,0,0,0,0,0l0,0c0,0,0,0,0,0l0,0l0,0c0.1,0,0.3,0.1,0.4,0.1
			c0.3,0.1,0.7,0.1,1.1,0.2c0.4,0.1,0.7,0.1,1.1,0.1c1.5,0.1,3.1,0.2,4.6,0.2c1.6,0,3.1,0,4.7-0.1l4.7-0.1l-0.1,0.2c0,0,0-0.1,0-0.1
			c0-0.1,0-0.1,0-0.1l0,0l0,0l0,0c0,0,0,0,0.1,0c0,0,0.1-0.1,0.1-0.1c0.1-0.1,0.1-0.1,0.1-0.2c0-0.1,0-0.2,0-0.2c0,0,0,0,0-0.1
			l0-0.1C31.8,7.1,31.8,7.1,31.7,7.1z M31.7,7.1c0.1,0.1,0.2,0.1,0.2,0.2C32,7.4,32,7.5,32,7.6c0,0.1,0,0.2-0.1,0.3
			c0,0.1-0.1,0.1-0.1,0.1c0,0,0,0,0,0.1l0,0l0,0l0,0c0,0,0,0,0-0.1c0,0,0-0.1,0-0.1l-0.1,0.2c-1.5,0.4-3.1,0.7-4.7,0.9
			c-1.6,0.2-3.1,0.4-4.7,0.5c-0.4,0-0.8,0-1.2,0.1c-0.4,0-0.8,0-1.2,0c-0.8,0-1.6,0-2.4-0.1c-0.4,0-0.8-0.1-1.2-0.1
			c-0.4-0.1-0.8-0.1-1.3-0.2c-0.2-0.1-0.4-0.1-0.7-0.2l-0.1,0L14.1,9C14,9,14,8.9,13.9,8.8l0,0c0,0,0,0,0,0l0,0c0,0,0,0,0,0
			c0,0,0,0-0.1-0.1l0,0l0,0l0,0l0-0.1c-0.1-0.1-0.1-0.1-0.1-0.2c0,0,0-0.1-0.1-0.1c0,0,0-0.1,0-0.1c0-0.1,0-0.1,0-0.1
			c0-0.1,0-0.1,0-0.2c0-0.1,0-0.1,0-0.2c0-0.1,0-0.1,0-0.2c0-0.1,0-0.2,0.1-0.3c0-0.2,0.1-0.4,0.2-0.5c0-0.1,0.1-0.1,0.1-0.2
			c0,0,0.1-0.1,0.1-0.1l0-0.1l0,0l0,0l0,0L14,6L14.3,6c1.5-0.3,3-0.4,4.4-0.5l0.6,0c0.2,0,0.4,0,0.6,0c0.2,0,0.4,0,0.6,0
			c0.2,0,0.4,0,0.6,0c0.4,0,0.7,0,1.1,0c0.2,0,0.4,0,0.6,0c0.2,0,0.4,0,0.5,0c1.5,0.1,2.9,0.3,4.3,0.5c0.4,0.1,0.7,0.1,1.1,0.2
			l0.5,0.1l0.5,0.1C30.3,6.7,31,6.9,31.7,7.1z"/>
	</g>
</g>
</svg>
